<?xml version="1.0" encoding="UTF-8" standalone="no"?>
<svg
   xmlns:dc="http://purl.org/dc/elements/1.1/"
   xmlns:cc="http://creativecommons.org/ns#"
   xmlns:rdf="http://www.w3.org/1999/02/22-rdf-syntax-ns#"
   xmlns:svg="http://www.w3.org/2000/svg"
   xmlns="http://www.w3.org/2000/svg"
   xmlns:sodipodi="http://sodipodi.sourceforge.net/DTD/sodipodi-0.dtd"
   xmlns:inkscape="http://www.inkscape.org/namespaces/inkscape"
   version="1.2"
   x="0px"
   y="0px"
   viewBox="0 0 99.999999 100"
   xml:space="preserve"
   id="svg2"
   inkscape:version="0.91 r13725"
   sodipodi:docname="Arma.svg"
   width="100"
   height="100"><metadata
     id="metadata14"><rdf:RDF><cc:Work
         rdf:about=""><dc:format>image/svg+xml</dc:format><dc:type
           rdf:resource="http://purl.org/dc/dcmitype/StillImage" /><dc:title></dc:title></cc:Work></rdf:RDF></metadata><defs
     id="defs12" /><sodipodi:namedview
     pagecolor="#ffffff"
     bordercolor="#666666"
     borderopacity="1"
     objecttolerance="10"
     gridtolerance="10"
     guidetolerance="10"
     inkscape:pageopacity="0"
     inkscape:pageshadow="2"
     inkscape:window-width="1366"
     inkscape:window-height="705"
     id="namedview10"
     showgrid="false"
     inkscape:zoom="3.3302172"
     inkscape:cx="28.3465"
     inkscape:cy="35.433125"
     inkscape:window-x="-8"
     inkscape:window-y="-8"
     inkscape:window-maximized="1"
     inkscape:current-layer="svg2" /><path
     d="m 60.042143,35.925512 -7.779452,0 c -0.926453,0 -1.768326,0.507484 -2.19713,1.323785 -0.434705,0.826136 -0.373728,1.8175 0.15736,2.588561 1.355257,1.970926 2.254172,4.258537 2.602329,6.613026 0.07082,0.481912 0.485847,0.839905 0.973661,0.839905 l 8.404955,0 c 1.101515,0 2.11845,-0.499616 2.791161,-1.370993 0.672711,-0.871377 0.900882,-1.982728 0.621569,-3.04687 l -0.863509,-3.306513 c -0.558626,-2.142054 -2.496113,-3.640901 -4.710944,-3.640901 z m 3.396994,8.792453 c -0.298983,0.385529 -0.749424,0.6078 -1.235271,0.6078 l -7.578818,0 c -0.466177,-2.350555 -1.420168,-4.618497 -2.783293,-6.599257 -0.169161,-0.247841 -0.08262,-0.474045 -0.03934,-0.558626 0.05311,-0.102283 0.184897,-0.273411 0.456341,-0.273411 l 5.57052,0 0,0.861542 c 0,1.526385 -0.8104,2.972124 -2.116482,3.766788 -0.649107,0.395366 -0.855642,1.243139 -0.458309,1.892247 0.259643,0.426837 0.712051,0.660909 1.17626,0.660909 0.243908,0 0.491749,-0.06491 0.715986,-0.2026 2.120416,-1.290347 3.438301,-3.636968 3.438301,-6.117344 l 0,-0.769094 c 1.077911,0.210468 1.978793,0.985463 2.264007,2.079111 l 0.863509,3.306512 c 0.123921,0.47011 0.02557,0.959892 -0.273411,1.345423 z m 14.597044,-22.164061 7.427359,0 c 1.357224,0 2.462674,-1.10545 2.462674,-2.462674 0,-1.357224 -1.10545,-2.46464 -2.462674,-2.46464 l -7.427359,0 c -1.357225,0 -2.462673,1.105449 -2.462673,2.46464 0,1.359191 1.103481,2.462674 2.462673,2.462674 z m 0,-2.960322 7.427359,0 c 0.273413,0 0.495682,0.222269 0.495682,0.497648 0,0.273412 -0.222269,0.495682 -0.495682,0.495682 l -7.427359,0 c -0.273412,0 -0.495682,-0.22227 -0.495682,-0.495682 0,-0.273412 0.220303,-0.497648 0.495682,-0.497648 z M 92.092302,41.66716 c -0.369794,-1.414267 -0.06884,-2.887543 0.824169,-4.044135 0.893015,-1.15659 2.244338,-1.819466 3.703845,-1.819466 1.555891,0 2.820666,-1.266743 2.820666,-2.822633 0,-1.555891 -1.266742,-2.822633 -2.820666,-2.822633 l -1.306082,0 c -1.07791,0 -1.955189,-0.875311 -1.955189,-1.953222 l 0,-1.685712 c 0,-0.06688 -0.02557,-0.125888 -0.03737,-0.190799 -0.0079,-0.03541 0.0039,-0.07278 -0.0079,-0.108184 l -0.297016,-0.936288 1.907982,-3.198329 c 0.476012,-0.794664 0.485847,-1.750622 0.02951,-2.557088 -0.458309,-0.8045 -1.284446,-1.286413 -2.212866,-1.286413 l -1.96109,0 -0.114086,-0.359959 C 90.08986,16.066766 88.423817,14.847231 86.51977,14.847231 l -2.651505,0 0,-1.998463 c 0,-0.54289 -0.440606,-0.983496 -0.983495,-0.983496 l -2.271876,0 c -0.542889,0 -0.983495,0.440606 -0.983495,0.983496 l 0,1.998463 -67.469777,0 0,-1.998463 c 0,-0.54289 -0.440606,-0.983496 -0.983496,-0.983496 l -0.417002,0 c -1.8450381,0 -3.3851923,1.272643 -3.8257984,2.981959 l -2.1735257,0 c -0.5428896,0 -0.9834958,0.440606 -0.9834958,0.983496 l 0,0.06098 -2.30138,0 c -0.54284448,10e-7 -0.98345055,0.440607 -0.98345055,0.983497 l 0,7.10674 c 0,0.54289 0.44060607,0.983496 0.98349575,0.983496 l 2.3013801,0 0,1.551956 c 0,0.542891 0.4406062,0.983496 0.9834958,0.983496 l 0.3461905,0 0,5.659035 c 0,0.54289 0.4406061,0.983496 0.9834958,0.983496 l 4.1051115,0 0,0.297016 c 0,0.542889 0.440606,0.983495 0.983496,0.983495 l 26.009529,0 c 7.358515,0 13.34407,5.985556 13.34407,13.344071 0,0.542889 0.440607,0.983496 0.983496,0.983496 l 16.670254,0 3.473706,13.306697 c 0.993331,3.806129 1.49688,7.72831 1.49688,11.662294 l 0,1.282477 c 0,0.54289 0.440607,0.983496 0.983496,0.983496 l 0.930388,0 0,0.184898 c 0,1.512616 1.231337,2.743953 2.743953,2.743953 l 15.350401,0 c 0.54289,0 0.983496,-0.440606 0.983496,-0.983496 l 0,-1.943387 4.311646,0 c 0.542889,0 0.983496,-0.440607 0.983496,-0.983496 0,-4.101178 -0.525187,-8.190554 -1.559824,-12.157975 L 92.092302,41.66716 Z m 0.649107,-21.455944 c 0.302917,0 0.450441,0.204567 0.501583,0.291115 0.04917,0.08654 0.147525,0.318653 -0.0059,0.578296 l -1.014967,1.701448 -0.816302,-2.570859 1.335587,0 z m -90.2849109,2.791162 0,-5.139749 1.3178844,0 0,5.139749 -1.3178844,0 z m 3.2868428,2.535452 0,-1.551957 0,-7.10674 0,-0.06098 2.0358368,0 3.3989613,0 69.436767,0 2.271876,0 3.635,0 c 1.042505,0 1.95519,0.668778 2.271875,1.664075 l 2.240403,7.057566 -21.066478,0 -1.923718,-6.056367 c -0.16326,-0.517318 -0.710084,-0.800565 -1.235271,-0.639272 -0.517318,0.165226 -0.8045,0.715985 -0.639272,1.23527 l 1.73292,5.458402 -1.42607,0 -1.92175,-6.0544 c -0.165227,-0.517318 -0.715985,-0.800565 -1.235271,-0.639272 -0.517319,0.165226 -0.804499,0.715985 -0.639273,1.23527 l 1.73292,5.458402 -1.276577,0 -0.149492,0 -1.92175,-6.0544 c -0.16326,-0.517318 -0.710084,-0.800565 -1.235271,-0.639272 -0.517318,0.165226 -0.8045,0.715985 -0.639272,1.23527 l 1.732919,5.458402 -1.426068,0 -1.921752,-6.0544 c -0.163259,-0.517318 -0.715984,-0.800565 -1.23527,-0.639272 -0.517319,0.165226 -0.804499,0.715985 -0.639272,1.23527 l 1.73292,5.458402 -1.424102,0 -1.923718,-6.0544 c -0.165228,-0.517318 -0.715985,-0.800565 -1.235271,-0.639272 -0.517319,0.165226 -0.804499,0.715985 -0.639272,1.23527 l 1.732919,5.458402 -1.426068,0 -1.919785,-6.0544 c -0.163259,-0.517318 -0.710083,-0.800565 -1.23527,-0.639272 -0.517319,0.165226 -0.804499,0.715985 -0.639272,1.23527 l 1.732919,5.458402 -39.280821,0 -5.0886066,0 -0.3442235,0 z M 40.407633,33.460872 37.14046,30.766093 C 36.151063,29.949792 34.900056,29.49935 33.617578,29.49935 l -21.457911,0 0,-1.996496 50.215328,0 1.553923,5.95605 -23.521285,0 z m -30.214957,-1.280512 -3.1216158,0 0,-4.675538 3.1216158,0 0,4.675538 z m 22.689247,1.280512 -20.722256,0 0,-0.297016 0,-1.695547 6.188156,0 15.269755,0 c 0.826137,0 1.63457,0.289148 2.271875,0.816301 l 2.311215,1.907983 -5.318745,-0.731721 z M 52.46529,47.788438 C 52.128935,42.483462 49.076165,37.906272 44.687807,35.427863 l 19.756462,0 3.225867,12.360575 -15.204846,0 z m 39.71356,30.161848 -14.366906,0 c -0.428804,0 -0.776962,-0.348157 -0.776962,-0.776961 l 0,-0.184897 15.143868,0 0,0.961858 z m 0.983495,-2.926883 -17.110859,0 -0.930386,0 0,-0.298983 c 0,-4.101177 -0.525187,-8.190552 -1.559825,-12.157974 l -9.150444,-35.061624 2.797061,0 24.186129,0 0,0.702215 c 0,2.161723 1.760457,3.920215 3.922181,3.920215 l 1.306082,0 c 0.47011,0 0.853674,0.383562 0.853674,0.855641 0,0.472078 -0.383564,0.855641 -0.853674,0.855641 -2.075176,0 -3.992993,0.942189 -5.261703,2.58266 -1.268709,1.640471 -1.695546,3.73335 -1.172327,5.741648 l 5.788856,22.181763 c 0.910717,3.487477 1.410334,7.075269 1.487046,10.678798 l -4.301811,0 z m -0.04917,-9.929374 c 0.501583,1.921751 0.873345,3.894643 1.10545,5.86557 0.03344,0.279312 -0.05507,0.558625 -0.24194,0.769093 -0.186864,0.208501 -0.454374,0.330454 -0.735655,0.330454 l -14.301996,0 c -0.517318,0 -0.944155,-0.399298 -0.981528,-0.914651 -0.22227,-3.147186 -0.737621,-6.282571 -1.532286,-9.327473 L 69.344045,34.692208 c -0.07671,-0.293082 -0.0118,-0.6078 0.173095,-0.84974 0.184898,-0.24194 0.474045,-0.381596 0.778929,-0.381596 l 17.641947,0 c 0.365861,0 0.702216,0.204567 0.871377,0.52912 0.169161,0.324554 0.143591,0.715985 -0.06491,1.018902 -1.612933,2.313182 -2.130251,5.194824 -1.424101,7.905339 l 5.792789,22.179796 z"
     id="path4"
     inkscape:connector-curvature="0" /></svg>