<?xml version="1.0" encoding="UTF-8" standalone="no"?>
<svg
   xmlns:dc="http://purl.org/dc/elements/1.1/"
   xmlns:cc="http://creativecommons.org/ns#"
   xmlns:rdf="http://www.w3.org/1999/02/22-rdf-syntax-ns#"
   xmlns:svg="http://www.w3.org/2000/svg"
   xmlns="http://www.w3.org/2000/svg"
   xmlns:sodipodi="http://sodipodi.sourceforge.net/DTD/sodipodi-0.dtd"
   xmlns:inkscape="http://www.inkscape.org/namespaces/inkscape"
   version="1.1"
   x="0px"
   y="0px"
   viewBox="0 0 100 100"
   enable-background="new 0 0 100 100"
   xml:space="preserve"
   id="svg2"
   inkscape:version="0.91 r13725"
   sodipodi:docname="Edad.svg"
   width="100"
   height="100"><metadata
     id="metadata40"><rdf:RDF><cc:Work
         rdf:about=""><dc:format>image/svg+xml</dc:format><dc:type
           rdf:resource="http://purl.org/dc/dcmitype/StillImage" /><dc:title></dc:title></cc:Work></rdf:RDF></metadata><defs
     id="defs38" /><sodipodi:namedview
     pagecolor="#ffffff"
     bordercolor="#666666"
     borderopacity="1"
     objecttolerance="10"
     gridtolerance="10"
     guidetolerance="10"
     inkscape:pageopacity="0"
     inkscape:pageshadow="2"
     inkscape:window-width="1366"
     inkscape:window-height="705"
     id="namedview36"
     showgrid="false"
     inkscape:zoom="4.304"
     inkscape:cx="50"
     inkscape:cy="62.805264"
     inkscape:window-x="-8"
     inkscape:window-y="-8"
     inkscape:window-maximized="1"
     inkscape:current-layer="svg2" /><g
     id="g4"
     transform="matrix(1.1921339,0,0,1.1921339,-11.127669,-11.348856)"><path
       d="m 55.405,35.189 c -0.135,0.993 -0.465,1.917 -0.967,2.735 -0.116,0.612 -0.185,1.247 -0.185,1.903 0,1.059 0.259,2.451 0.55,3.383 -0.005,0.014 -0.012,0.026 -0.017,0.04 0.076,0.14 0.161,0.275 0.228,0.421 1.062,-2.194 2.992,-5.055 3.943,-6.42 -0.734,-0.331 -1.413,-0.692 -1.868,-0.972 -0.426,-0.264 -1.036,-0.66 -1.684,-1.09 z"
       id="path6"
       inkscape:connector-curvature="0"
       style="fill:none" /><path
       d="m 16.151,40.917 c -0.002,0.072 -0.012,0.135 -0.015,0.204 0.017,-0.08 0.035,-0.159 0.055,-0.238 -0.026,0.003 -0.053,0.006 -0.079,0.008 l 0.039,0.026 z"
       id="path8"
       inkscape:connector-curvature="0"
       style="fill:none" /><path
       d="m 80.478,29.557 c 0.036,0.127 0.061,0.258 0.061,0.396 0,0.821 -0.662,1.485 -1.482,1.492 0.224,0.284 0.566,0.47 0.956,0.47 0.677,0 1.225,-0.549 1.225,-1.225 0.001,-0.512 -0.314,-0.949 -0.76,-1.133 z"
       id="path10"
       inkscape:connector-curvature="0"
       style="fill:none" /><path
       d="m 85.779,36.864 c -0.131,0.961 -0.463,1.861 -0.952,2.647 -0.105,0.577 -0.175,1.18 -0.175,1.791 0,1.022 0.253,2.359 0.533,3.259 0.07,0.14 0.14,0.28 0.21,0.428 1.022,-2.106 2.866,-4.849 3.783,-6.159 -0.708,-0.315 -1.363,-0.664 -1.8,-0.935 -0.402,-0.254 -0.979,-0.62 -1.599,-1.031 z"
       id="path12"
       inkscape:connector-curvature="0"
       style="fill:none" /><path
       d="m 77.554,29.953 c 0,-0.139 0.025,-0.271 0.061,-0.398 -0.45,0.181 -0.768,0.62 -0.768,1.135 0,0.677 0.548,1.225 1.225,1.225 0.39,0 0.733,-0.187 0.957,-0.471 -0.816,-0.009 -1.475,-0.672 -1.475,-1.491 z"
       id="path14"
       inkscape:connector-curvature="0"
       style="fill:none" /><path
       d="m 72.272,36.637 c -0.62,0.402 -1.197,0.786 -1.608,1.031 -0.411,0.253 -1.031,0.585 -1.704,0.891 0.935,1.337 2.901,4.255 3.801,6.299 0.114,-0.236 0.236,-0.463 0.376,-0.681 0.28,-0.891 0.437,-1.861 0.437,-2.874 0,-0.515 -0.052,-1.013 -0.131,-1.503 -0.638,-0.918 -1.057,-2.001 -1.171,-3.163 z"
       id="path16"
       inkscape:connector-curvature="0"
       style="fill:none" /><path
       d="m 42.59,38.249 c -0.66,-0.956 -1.061,-2.088 -1.184,-3.305 -0.654,0.435 -1.271,0.836 -1.698,1.099 -0.431,0.266 -1.076,0.609 -1.773,0.923 0.975,1.4 3.026,4.449 3.957,6.573 0.118,-0.242 0.241,-0.48 0.383,-0.706 -10e-4,-0.002 -0.002,-0.005 -0.003,-0.007 0.29,-0.932 0.456,-1.941 0.456,-2.999 10e-4,-0.543 -0.056,-1.066 -0.138,-1.578 z"
       id="path18"
       inkscape:connector-curvature="0"
       style="fill:none" /><circle
       cx="48.417999"
       cy="18.513"
       r="6.723"
       id="circle20" /><path
       d="m 73.612,24.148 c 0,0.251 0.156,0.464 0.376,0.551 -0.119,0.074 -0.203,0.2 -0.203,0.351 0,0.232 0.188,0.42 0.42,0.42 0.171,0 0.316,-0.103 0.382,-0.248 1.126,1.259 2.758,2.056 4.58,2.056 1.822,0 3.454,-0.797 4.58,-2.056 0.066,0.146 0.211,0.248 0.382,0.248 0.232,0 0.42,-0.188 0.42,-0.42 0,-0.151 -0.083,-0.277 -0.203,-0.351 0.22,-0.087 0.376,-0.3 0.376,-0.551 0,-0.094 -0.027,-0.18 -0.066,-0.259 0.419,-0.831 0.66,-1.766 0.66,-2.76 0,-3.396 -2.753,-6.149 -6.149,-6.149 -3.396,0 -6.149,2.753 -6.149,6.149 0,0.994 0.241,1.929 0.66,2.76 -0.039,0.078 -0.066,0.164 -0.066,0.259 z"
       id="path22"
       inkscape:connector-curvature="0" /><path
       d="m 79.167,14.782 c 0.937,0 1.824,0.209 2.625,0.575 0.018,-0.124 0.03,-0.249 0.03,-0.377 0,-1.466 -1.188,-2.654 -2.654,-2.654 -1.466,0 -2.654,1.188 -2.654,2.654 0,0.128 0.012,0.254 0.03,0.377 0.8,-0.366 1.687,-0.575 2.623,-0.575 z"
       id="path24"
       inkscape:connector-curvature="0" /><path
       d="m 62.835,37.005 c -1.576,-6.211 -12.13,-10.109 -11.977,-9.563 -0.76,-0.301 -1.572,-0.5 -2.439,-0.5 -1.043,0 -2.027,0.245 -2.908,0.669 -1.103,0.058 -9.863,3.64 -11.254,9.123 -0.004,0.014 -0.002,0.024 -0.005,0.038 -0.153,0.519 -0.075,1.1 0.271,1.569 0,0 4.55,6.405 6.684,7.385 -0.494,1.802 -1.073,4.498 -1.313,7.532 l -0.014,0 -0.011,0.264 c -0.046,0.635 -0.073,1.283 -0.084,1.942 l -0.549,12.695 2.185,0 c -0.008,0.089 -0.046,0.168 -0.046,0.26 0,0 0.176,18.24 3.12,18.24 2.944,0 3.12,-18.24 3.12,-18.24 0,-0.089 -0.019,-0.173 -0.027,-0.26 l 2.075,0 c -0.025,0.157 -0.049,0.315 -0.049,0.479 0,0 0.176,18.24 3.12,18.24 2.944,0 3.12,-18.24 3.12,-18.24 0,-0.169 -0.058,-0.318 -0.084,-0.479 l 2.153,0 -0.48,-11.119 c 0.02,-1.266 -0.044,-2.507 -0.16,-3.698 l -0.004,-0.085 -0.005,0 c -0.287,-2.874 -0.883,-5.434 -1.407,-7.21 2.431,-1.706 6.687,-7.35 6.687,-7.35 0.339,-0.459 0.418,-1.014 0.302,-1.53 -0.008,-0.055 -0.006,-0.101 -0.021,-0.162 z m -20.559,5.828 c -0.143,0.226 -0.266,0.464 -0.383,0.706 -0.932,-2.124 -2.982,-5.173 -3.957,-6.573 0.697,-0.314 1.342,-0.657 1.773,-0.923 0.427,-0.263 1.044,-0.665 1.698,-1.099 0.123,1.217 0.524,2.349 1.184,3.305 0.082,0.512 0.139,1.036 0.139,1.578 0,1.059 -0.166,2.067 -0.456,2.999 0,0.002 10e-4,0.005 0.002,0.007 z m 12.738,0.837 c -0.067,-0.146 -0.152,-0.28 -0.228,-0.421 0.005,-0.014 0.012,-0.026 0.017,-0.04 -0.29,-0.932 -0.55,-2.324 -0.55,-3.383 0,-0.656 0.069,-1.291 0.185,-1.903 0.502,-0.817 0.832,-1.742 0.967,-2.735 0.648,0.43 1.258,0.826 1.685,1.089 0.454,0.28 1.134,0.641 1.868,0.972 -0.952,1.366 -2.882,4.227 -3.944,6.421 z"
       id="path26"
       inkscape:connector-curvature="0" /><path
       d="m 27.123,51.382 c -0.197,-0.514 -0.667,-0.839 -1.182,-0.882 0,-0.007 0,-0.013 0,-0.02 0,0 0,0 0,-10e-4 l 0,-0.008 -2.879,0 c 0,-0.011 0.003,-0.022 0.003,-0.033 l 0,-1.341 c 1.23,-0.488 2.228,-1.432 2.767,-2.636 0.027,0.064 0.051,0.129 0.09,0.187 0.252,0.226 -0.058,-0.575 0.419,-1.091 0.477,-0.515 0.459,-1.167 0.126,-1.76 -0.333,-0.593 -0.219,-1.144 -0.117,-1.314 10e-4,-0.002 -0.001,-0.006 0,-0.009 0.039,-0.084 0.064,-0.176 0.064,-0.274 0,-2.871 -2.328,-5.199 -5.199,-5.199 -0.661,0 -1.292,0.125 -1.873,0.35 0.006,-0.002 0.011,-0.006 0.017,-0.008 -0.219,-0.028 -0.44,-0.022 -0.661,10e-4 -0.298,-1.296 -1.452,-2.265 -2.838,-2.265 -1.612,0 -2.918,1.306 -2.918,2.918 0,0.346 0.071,0.672 0.181,0.98 l -0.016,-0.01 c 0,0 1.612,4.967 -0.165,6.61 -0.104,0.359 2.168,-0.232 2.948,-2.944 0.164,0.204 0.382,0.593 0.11,1.078 -0.333,0.593 -0.383,1.231 0.095,1.746 0.477,0.515 0.167,1.316 0.419,1.09 0.025,-0.037 0.038,-0.08 0.058,-0.12 0.524,1.195 1.501,2.139 2.709,2.639 l 0,1.369 c 0,0.011 0.003,0.022 0.003,0.033 l -2.857,0 0,0.008 c 0,0 0,10e-4 0,10e-4 l 0,0.02 c -0.514,0.044 -0.984,0.368 -1.182,0.882 L 9.638,65.981 c -0.275,0.717 0.083,1.521 0.8,1.797 0.164,0.063 0.332,0.093 0.498,0.093 0.559,0 1.086,-0.339 1.299,-0.892 l 4.193,-10.916 0,8.62 0,0.272 0,0.639 c 0,0.06 0.013,0.116 0.017,0.175 l 0,17.567 0.003,0 0,1.789 c 0,0.927 0.759,1.686 1.686,1.686 l 0.346,0 c 0.928,0 1.687,-0.759 1.687,-1.686 l 0,-13.196 c 0,-0.011 -0.003,-0.022 -0.003,-0.033 l 0,-3.686 2.036,0 0,15.124 0.018,0 0,1.807 c 0,0.918 0.751,1.669 1.669,1.669 l 0.306,0 c 0.918,0 1.669,-0.751 1.669,-1.669 l 0,-1.807 0.057,0 0,-17.501 c 0.007,-0.08 0.023,-0.158 0.023,-0.24 l 0,-0.639 0,-0.272 c 0,-0.595 0,-2.505 0,-8.62 l 4.193,10.916 c 0.212,0.553 0.74,0.892 1.299,0.892 0.166,0 0.334,-0.03 0.498,-0.093 0.717,-0.275 1.075,-1.08 0.8,-1.797 L 27.123,51.382 Z M 16.135,41.121 c 0.004,-0.07 0.013,-0.133 0.015,-0.204 l -0.04,-0.025 c 0.027,-0.002 0.053,-0.005 0.079,-0.008 -0.019,0.078 -0.037,0.158 -0.054,0.237 z"
       id="path28"
       inkscape:connector-curvature="0" /><path
       d="M 92.908,38.594 C 91.414,32.732 81.62,29.018 81.402,29.377 c -0.734,-0.288 -1.529,-0.463 -2.359,-0.463 -1.005,0 -1.948,0.236 -2.796,0.646 -1.057,0.052 -9.488,3.503 -10.825,8.772 l 0,0.035 c -0.148,0.498 -0.079,1.057 0.262,1.511 0,0 4.368,6.159 6.422,7.103 -0.559,2.044 -1.241,5.277 -1.354,8.842 -0.166,1.179 -0.166,1.179 -0.166,1.179 l -2.822,20.06 c 0,0 1.809,0.917 5.05,1.564 0.411,4.002 1.153,7.706 2.455,7.706 1.241,0 1.966,-3.355 2.403,-7.129 0.978,0.052 2.009,0.061 3.11,0.017 0.419,3.853 1.153,7.33 2.411,7.33 1.319,0 2.062,-3.792 2.472,-7.846 1.546,-0.262 3.172,-0.62 4.866,-1.118 L 87.753,57.002 c 0,0 0,0 -0.035,-0.253 0,-0.009 0,-0.009 0,-0.009 -0.087,-0.577 -0.341,-2.394 -1.153,-8.151 -0.017,-0.079 -0.044,-0.148 -0.061,-0.218 -0.096,-0.384 -0.201,-0.751 -0.297,-1.083 2.341,-1.642 6.43,-7.068 6.43,-7.068 0.349,-0.472 0.428,-1.057 0.271,-1.59 l 0,-0.036 z m -19.771,5.583 c -0.14,0.218 -0.262,0.446 -0.376,0.681 -0.9,-2.044 -2.866,-4.962 -3.801,-6.299 0.673,-0.306 1.293,-0.638 1.704,-0.891 0.411,-0.245 0.987,-0.629 1.608,-1.031 0.114,1.162 0.533,2.245 1.171,3.163 0.079,0.489 0.131,0.987 0.131,1.503 0,1.013 -0.158,1.983 -0.437,2.874 z m 4.935,-12.262 c -0.677,0 -1.225,-0.549 -1.225,-1.225 0,-0.515 0.318,-0.954 0.768,-1.135 -0.036,0.128 -0.061,0.259 -0.061,0.398 0,0.819 0.659,1.481 1.475,1.491 -0.224,0.284 -0.567,0.471 -0.957,0.471 z m 1.942,0 c -0.39,0 -0.732,-0.186 -0.956,-0.47 0.819,-0.006 1.482,-0.671 1.482,-1.492 0,-0.138 -0.025,-0.269 -0.061,-0.396 0.446,0.183 0.76,0.621 0.76,1.133 0,0.677 -0.549,1.225 -1.225,1.225 z m 5.381,13.074 c -0.07,-0.148 -0.14,-0.288 -0.21,-0.428 -0.28,-0.9 -0.533,-2.237 -0.533,-3.259 0,-0.612 0.07,-1.214 0.175,-1.791 0.489,-0.786 0.821,-1.686 0.952,-2.647 0.62,0.411 1.197,0.778 1.599,1.031 0.437,0.271 1.092,0.62 1.8,0.935 -0.918,1.31 -2.761,4.054 -3.783,6.159 z"
       id="path30"
       inkscape:connector-curvature="0" /></g></svg>