<svg xmlns="http://www.w3.org/2000/svg" xmlns:xlink="http://www.w3.org/1999/xlink" version="1.1" x="0px" y="0px" viewBox="0 0 100 125" enable-background="new 0 0 100 100" xml:space="preserve"><g><path d="M32.85,23.525l-7.531-7.533c2.488-2.487,2.486-6.521-0.002-9.01c-2.487-2.487-6.52-2.487-9.009,0   c-1.586,1.586-2.156,3.801-1.721,5.842c-2.042-0.436-4.255,0.135-5.842,1.721c-2.486,2.488-2.486,6.521,0,9.01   c2.489,2.488,6.523,2.488,9.012,0l7.462,7.463C27.338,28.123,29.919,25.592,32.85,23.525z"/><path d="M85.65,76.326l-7.109-7.11c-1.768,2.515-3.893,4.792-6.334,6.75v2.037l5.883,5.884c-2.488,2.489-2.488,6.521,0,9.012   c2.486,2.487,6.523,2.487,9.01,0c1.586-1.586,2.154-3.801,1.721-5.843c2.041,0.437,4.254-0.134,5.844-1.72   c2.486-2.489,2.486-6.523,0-9.01C92.174,73.837,88.141,73.837,85.65,76.326z"/><path d="M78.189,31.018l7.461-7.461c2.49,2.486,6.523,2.486,9.01-0.002c2.49-2.488,2.49-6.521,0-9.01   c-1.586-1.585-3.799-2.156-5.84-1.722c0.434-2.04-0.135-4.255-1.721-5.841c-2.486-2.487-6.523-2.487-9.01,0   c-2.488,2.488-2.488,6.522,0,9.012l-7.533,7.531C73.49,25.593,76.07,28.125,78.189,31.018z"/><path d="M24.868,69.216l-7.11,7.11c-2.488-2.489-6.522-2.489-9.012,0c-2.486,2.486-2.486,6.521,0,9.008   c1.587,1.588,3.8,2.158,5.843,1.722c-0.437,2.042,0.134,4.257,1.72,5.843c2.489,2.487,6.521,2.487,9.011,0   c2.488-2.489,2.488-6.522,0-9.012l5.884-5.884v-2.037C28.759,74.008,26.634,71.73,24.868,69.216z"/><path d="M35.235,73.95v8.735h32.937V73.95c7.439-5.202,12.311-13.827,12.311-23.594c0-15.894-12.887-28.778-28.779-28.778   c-15.893,0-28.779,12.885-28.779,28.778C22.924,60.123,27.795,68.748,35.235,73.95z M62.404,47.256   c3.877,0,7.023,3.146,7.023,7.022c0,3.88-3.146,7.023-7.023,7.023c-3.879,0-7.023-3.144-7.023-7.023   C55.381,50.401,58.525,47.256,62.404,47.256z M54.723,68.138c1.281,0,2.322,1.04,2.322,2.323s-1.041,2.322-2.322,2.322   c-1.283,0-2.324-1.039-2.324-2.322S53.439,68.138,54.723,68.138z M51.01,70.461c0,1.283-1.041,2.322-2.326,2.322   c-1.281,0-2.32-1.039-2.32-2.322s1.039-2.323,2.32-2.323C49.969,68.138,51.01,69.178,51.01,70.461z M41.003,47.256   c3.878,0,7.023,3.146,7.023,7.022c0,3.88-3.146,7.023-7.023,7.023s-7.022-3.144-7.022-7.023   C33.981,50.401,37.125,47.256,41.003,47.256z"/></g><text x="0" y="115" fill="#000000" font-size="5px" font-weight="bold" font-family="'Helvetica Neue', Helvetica, Arial-Unicode, Arial, Sans-serif">Created by Ricardo Moreira</text><text x="0" y="120" fill="#000000" font-size="5px" font-weight="bold" font-family="'Helvetica Neue', Helvetica, Arial-Unicode, Arial, Sans-serif">from the Noun Project</text></svg>