<?xml version="1.0" encoding="UTF-8" standalone="no"?>
<svg
   xmlns:dc="http://purl.org/dc/elements/1.1/"
   xmlns:cc="http://creativecommons.org/ns#"
   xmlns:rdf="http://www.w3.org/1999/02/22-rdf-syntax-ns#"
   xmlns:svg="http://www.w3.org/2000/svg"
   xmlns="http://www.w3.org/2000/svg"
   xmlns:sodipodi="http://sodipodi.sourceforge.net/DTD/sodipodi-0.dtd"
   xmlns:inkscape="http://www.inkscape.org/namespaces/inkscape"
   version="1.1"
   x="0px"
   y="0px"
   viewBox="0 0 100 100"
   enable-background="new 0 0 100 100"
   xml:space="preserve"
   id="svg2"
   inkscape:version="0.91 r13725"
   sodipodi:docname="lugar.svg"
   width="100"
   height="100"><metadata
     id="metadata26"><rdf:RDF><cc:Work
         rdf:about=""><dc:format>image/svg+xml</dc:format><dc:type
           rdf:resource="http://purl.org/dc/dcmitype/StillImage" /><dc:title></dc:title></cc:Work></rdf:RDF></metadata><defs
     id="defs24" /><sodipodi:namedview
     pagecolor="#ffffff"
     bordercolor="#666666"
     borderopacity="1"
     objecttolerance="10"
     gridtolerance="10"
     guidetolerance="10"
     inkscape:pageopacity="0"
     inkscape:pageshadow="2"
     inkscape:window-width="1366"
     inkscape:window-height="705"
     id="namedview22"
     showgrid="false"
     inkscape:zoom="4.304"
     inkscape:cx="50"
     inkscape:cy="62.5"
     inkscape:window-x="-8"
     inkscape:window-y="-8"
     inkscape:window-maximized="1"
     inkscape:current-layer="svg2" /><g
     id="g4"
     transform="translate(0,-2.4628252)"><path
       d="m 76.807,73.834 c -6.369,0 -12.141,2.572 -16.33,6.735 4.469,2.974 6.594,8.539 5.17,16.431 l 34.328,0 c 0,-12.795 -10.373,-23.166 -23.168,-23.166 z"
       id="path6"
       inkscape:connector-curvature="0" /><path
       d="M 51.088,82.439 C 43.046,82.439 36.53,88.96 36.53,97 l 29.116,0 c 0,-8.04 -6.52,-14.561 -14.558,-14.561 z"
       id="path8"
       inkscape:connector-curvature="0" /></g><polygon
     points="54.675,11.671 54.671,11.671 54.671,50.426 60.847,56.482 60.847,15.357 67.496,15.357 67.496,67.202 73.672,67.202 73.672,15.357 80.333,15.357 80.333,67.202 86.509,67.202 86.509,15.357 93.605,15.357 93.605,71.563 99.975,77.113 99.975,8.988 86.682,8.988 86.682,3.25 67.216,3.25 67.216,8.988 54.658,8.988 "
     id="polygon10"
     transform="translate(0,-2.4628252)" /><g
     id="g12"
     transform="translate(0,-2.4628252)"><path
       d="m 51.084,56.997 -29.451,0 L 18.368,97 30.161,97 c 0,-11.539 9.388,-20.925 20.927,-20.925 1.51,0 2.98,0.167 4.4,0.473 l 0.503,-0.497 c 1.522,-1.512 3.187,-2.818 4.95,-3.945 l 0,-4.903 -9.857,-10.206 z"
       id="path14"
       inkscape:connector-curvature="0" /><path
       d="M 0,41.467 0,97 l 17.96,0 0.353,0 0,-55.533 L 9.079,18.91 0,41.467 Z m 13.874,8.988 c 0,2.547 -2.064,4.615 -4.619,4.615 -2.55,0 -4.615,-2.068 -4.615,-4.615 0,-2.55 2.064,-4.614 4.615,-4.614 2.555,0 4.619,2.064 4.619,4.614 z"
       id="path16"
       inkscape:connector-curvature="0" /></g></svg>