<?xml version="1.0" encoding="utf-8"?>
<!-- Generator: Adobe Illustrator 19.0.0, SVG Export Plug-In . SVG Version: 6.00 Build 0)  -->
<svg version="1.1" id="Layer_1" xmlns="http://www.w3.org/2000/svg" xmlns:xlink="http://www.w3.org/1999/xlink" x="0px" y="0px"
	 viewBox="0 0 100 200" style="enable-background:new 0 0 100 200;" xml:space="preserve">
<style type="text/css">
	.st0{fill:none;}
	.st1{font-family:'BebasNeue';}
	.st2{font-size:19px;}
</style>
<rect id="XMLID_43_" x="5.5" y="2.1" class="st0" width="89" height="25.2"/>
<text id="_x32_007-2" transform="matrix(1 0 0 1 34.9518 15.3646)" class="st1 st2">2007</text>
<rect id="XMLID_39_" x="5.5" y="27.3" class="st0" width="89" height="25.2"/>
<text id="_x32_008-2" transform="matrix(1 0 0 1 34.9518 40.6074)" class="st1 st2">2008</text>
<rect id="XMLID_35_" x="5.5" y="52.6" class="st0" width="89" height="25.2"/>
<text id="_x32_009-2" transform="matrix(1 0 0 1 34.9518 65.8501)" class="st1 st2">2009</text>
<rect id="XMLID_31_" x="5.5" y="77.8" class="st0" width="89" height="25.2"/>
<text id="_x32_010-2" transform="matrix(1 0 0 1 34.9518 91.0928)" class="st1 st2">2010</text>
<rect id="XMLID_27_" x="6" y="103.2" class="st0" width="89" height="25.2"/>
<text id="_x32_011-2" transform="matrix(1 0 0 1 35.4518 116.4714)" class="st1 st2">2011</text>
<rect id="XMLID_25_" x="6" y="128.4" class="st0" width="89" height="25.2"/>
<text id="_x32_012-2" transform="matrix(1 0 0 1 35.4518 141.7141)" class="st1 st2">2012</text>
<rect id="XMLID_21_" x="5.5" y="153.7" class="st0" width="89" height="25.2"/>
<text id="_x32_013-2" transform="matrix(1 0 0 1 34.9518 166.9569)" class="st1 st2">2013</text>
<rect id="XMLID_19_" x="6" y="178.9" class="st0" width="89" height="25.2"/>
<text id="_x32_014-2" transform="matrix(1 0 0 1 35.4518 192.1996)" class="st1 st2">2014</text>
</svg>
