<svg xmlns="http://www.w3.org/2000/svg" xmlns:xlink="http://www.w3.org/1999/xlink" version="1.2" baseProfile="tiny" x="0px" y="0px" viewBox="0 0 56.693 70.86625" xml:space="preserve"><path d="M33.469,26.559h-3.955c-0.471,0-0.899,0.258-1.117,0.673c-0.221,0.42-0.19,0.924,0.08,1.316  c0.689,1.002,1.146,2.165,1.323,3.362c0.036,0.245,0.247,0.427,0.495,0.427h4.273c0.56,0,1.077-0.254,1.419-0.697  s0.458-1.008,0.316-1.549l-0.439-1.681C35.58,27.321,34.595,26.559,33.469,26.559z M35.196,31.029  c-0.152,0.196-0.381,0.309-0.628,0.309h-3.853c-0.237-1.195-0.722-2.348-1.415-3.355c-0.086-0.126-0.042-0.241-0.02-0.284  c0.027-0.052,0.094-0.139,0.232-0.139h2.832v0.438c0,0.776-0.412,1.511-1.076,1.915c-0.33,0.201-0.435,0.632-0.233,0.962  c0.132,0.217,0.362,0.336,0.598,0.336c0.124,0,0.25-0.033,0.364-0.103c1.078-0.656,1.748-1.849,1.748-3.11v-0.391  c0.548,0.107,1.006,0.501,1.151,1.057l0.439,1.681C35.398,30.584,35.348,30.833,35.196,31.029z M42.617,19.761h3.776  c0.69,0,1.252-0.562,1.252-1.252s-0.562-1.253-1.252-1.253h-3.776c-0.69,0-1.252,0.562-1.252,1.253S41.926,19.761,42.617,19.761z   M42.617,18.256h3.776c0.139,0,0.252,0.113,0.252,0.253c0,0.139-0.113,0.252-0.252,0.252h-3.776c-0.139,0-0.252-0.113-0.252-0.252  C42.365,18.37,42.477,18.256,42.617,18.256z M49.763,29.478c-0.188-0.719-0.035-1.468,0.419-2.056s1.141-0.925,1.883-0.925  c0.791,0,1.434-0.644,1.434-1.435s-0.644-1.435-1.434-1.435h-0.664c-0.548,0-0.994-0.445-0.994-0.993v-0.857  c0-0.034-0.013-0.064-0.019-0.097c-0.004-0.018,0.002-0.037-0.004-0.055l-0.151-0.476l0.97-1.626c0.242-0.404,0.247-0.89,0.015-1.3  c-0.233-0.409-0.653-0.654-1.125-0.654h-0.997l-0.058-0.183c-0.293-0.923-1.14-1.543-2.108-1.543h-1.348v-1.016  c0-0.276-0.224-0.5-0.5-0.5h-1.155c-0.276,0-0.5,0.224-0.5,0.5v1.016H9.126v-1.016c0-0.276-0.224-0.5-0.5-0.5H8.414  c-0.938,0-1.721,0.647-1.945,1.516H5.364c-0.276,0-0.5,0.224-0.5,0.5v0.031h-1.17c-0.276,0-0.5,0.224-0.5,0.5v3.613  c0,0.276,0.224,0.5,0.5,0.5h1.17v0.789c0,0.276,0.224,0.5,0.5,0.5h0.176v2.877c0,0.276,0.224,0.5,0.5,0.5h2.087v0.151  c0,0.276,0.224,0.5,0.5,0.5h13.223c3.741,0,6.784,3.043,6.784,6.784c0,0.276,0.224,0.5,0.5,0.5h8.475l1.766,6.765  c0.505,1.935,0.761,3.929,0.761,5.929v0.652c0,0.276,0.224,0.5,0.5,0.5h0.473v0.094c0,0.769,0.626,1.395,1.395,1.395h7.804  c0.276,0,0.5-0.224,0.5-0.5v-0.988H53c0.276,0,0.5-0.224,0.5-0.5c0-2.085-0.267-4.164-0.793-6.181L49.763,29.478z M50.093,18.57  c0.154,0,0.229,0.104,0.255,0.148c0.025,0.044,0.075,0.162-0.003,0.294l-0.516,0.865l-0.415-1.307H50.093z M4.193,19.989v-2.613  h0.67v2.613H4.193z M5.864,21.278v-0.789v-3.613v-0.031h1.035h1.728h35.301h1.155h1.848c0.53,0,0.994,0.34,1.155,0.846l1.139,3.588  h-10.71L37.537,18.2c-0.083-0.263-0.361-0.407-0.628-0.325c-0.263,0.084-0.409,0.364-0.325,0.628l0.881,2.775H36.74L35.763,18.2  c-0.084-0.263-0.364-0.407-0.628-0.325c-0.263,0.084-0.409,0.364-0.325,0.628l0.881,2.775h-0.649h-0.076L33.989,18.2  c-0.083-0.263-0.361-0.407-0.628-0.325c-0.263,0.084-0.409,0.364-0.325,0.628l0.881,2.775h-0.725L32.215,18.2  c-0.083-0.263-0.364-0.407-0.628-0.325c-0.263,0.084-0.409,0.364-0.325,0.628l0.881,2.775h-0.724L30.441,18.2  c-0.084-0.263-0.364-0.407-0.628-0.325c-0.263,0.084-0.409,0.364-0.325,0.628l0.881,2.775h-0.725L28.668,18.2  c-0.083-0.263-0.361-0.407-0.628-0.325c-0.263,0.084-0.409,0.364-0.325,0.628l0.881,2.775H8.626H6.039H5.864z M23.487,25.306  l-1.661-1.37c-0.503-0.415-1.139-0.644-1.791-0.644H9.126v-1.015h25.529l0.79,3.028H23.487z M8.126,24.655H6.539v-2.377h1.587  V24.655z M19.661,25.306H9.126v-0.151v-0.862h3.146h7.763c0.42,0,0.831,0.147,1.155,0.415l1.175,0.97L19.661,25.306z M29.617,32.59  c-0.171-2.697-1.723-5.024-3.954-6.284h10.044l1.64,6.284H29.617z M49.807,47.924h-7.304c-0.218,0-0.395-0.177-0.395-0.395v-0.094  h7.699V47.924z M50.307,46.436h-8.699h-0.473v-0.152c0-2.085-0.267-4.164-0.793-6.181l-4.652-17.825h1.422h12.296v0.357  c0,1.099,0.895,1.993,1.994,1.993h0.664c0.239,0,0.434,0.195,0.434,0.435s-0.195,0.435-0.434,0.435c-1.055,0-2.03,0.479-2.675,1.313  s-0.862,1.898-0.596,2.919l2.943,11.277c0.463,1.773,0.717,3.597,0.756,5.429H50.307z M50.282,41.388  c0.255,0.977,0.444,1.98,0.562,2.982c0.017,0.142-0.028,0.284-0.123,0.391c-0.095,0.106-0.231,0.168-0.374,0.168h-7.271  c-0.263,0-0.48-0.203-0.499-0.465c-0.113-1.6-0.375-3.194-0.779-4.742l-3.6-13.79c-0.039-0.149-0.006-0.309,0.088-0.432  s0.241-0.194,0.396-0.194h8.969c0.186,0,0.357,0.104,0.443,0.269c0.086,0.165,0.073,0.364-0.033,0.518  c-0.82,1.176-1.083,2.641-0.724,4.019L50.282,41.388z"/><text x="0" y="71.693" fill="#000000" font-size="5px" font-weight="bold" font-family="'Helvetica Neue', Helvetica, Arial-Unicode, Arial, Sans-serif">Created by Jean-Philippe Cabaroc</text><text x="0" y="76.693" fill="#000000" font-size="5px" font-weight="bold" font-family="'Helvetica Neue', Helvetica, Arial-Unicode, Arial, Sans-serif">from the Noun Project</text></svg>