<svg xmlns="http://www.w3.org/2000/svg" xmlns:xlink="http://www.w3.org/1999/xlink" version="1.1" x="0px" y="0px" viewBox="0 0 100 125" enable-background="new 0 0 100 100" xml:space="preserve"><g><rect x="-192" width="185" height="99"/><rect y="-36" width="100" height="30"/><text transform="matrix(1 0 0 1 66 -19.5)" fill="#000000" font-family="'Helvetica'" font-size="2.4">http://thenounproject.com</text><text transform="matrix(1 0 0 1 7.166 -24.5)"><tspan x="0" y="0" fill="#000000" font-family="'Helvetica-Bold'" font-size="6.1578">The Noun Project</tspan><tspan x="1.12" y="4.8" fill="#000000" font-family="'Helvetica-Bold'" font-size="4">Icon Template</tspan></text><text transform="matrix(1 0 0 1 -178.5 10.5)" fill="#000000" font-family="'Helvetica-Bold'" font-size="6.1578">Reminders</text><line fill="#000000" stroke="#FFFFFF" stroke-miterlimit="10" x1="8" y1="-14.5" x2="18" y2="-14.5"/><line fill="#000000" stroke="#FFFFFF" stroke-miterlimit="10" x1="-179" y1="16.5" x2="-162" y2="16.5"/><g><g><g><rect x="-170.802" y="31.318" fill="#000000" width="8.721" height="8.642"/><path fill="#000000" d="M-164.455,42.312h4.747v-4.703h-4.747V42.312z M-159.266,42.749h-5.63V37.17h5.63V42.749      L-159.266,42.749z M-166.221,44.062h8.279v-8.203h-8.279V44.062L-166.221,44.062z M-157.5,44.5h-9.163v-9.079h9.163V44.5      L-157.5,44.5z"/><polygon fill="#000000" points="-166.149,44.133 -166.292,43.991 -158.013,35.787 -157.871,35.929     "/></g></g></g><rect x="-179" y="58" fill="none" width="35" height="32.5"/><text transform="matrix(1 0 0 1 -179 60.1543)"><tspan x="0" y="0" fill="#000000" font-family="'Helvetica-Bold'" font-size="3">Strokes</tspan><tspan x="0" y="5" fill="#000000" font-family="'Helvetica'" font-size="2.4">Try to keep strokes at 4px</tspan><tspan x="0" y="10" fill="#000000" font-family="'Helvetica'" font-size="2.4">Minimum stroke weight is 2px</tspan><tspan x="0" y="14.5" fill="#000000" font-family="'Helvetica'" font-size="2.4">For thicker strokes use even </tspan><tspan x="0" y="17.5" fill="#000000" font-family="'Helvetica'" font-size="2.4">numbers: 6px, 8px etc.</tspan><tspan x="0" y="22" fill="#000000" font-family="'Helvetica-Bold'" font-size="2.4">Remember to expand strokes </tspan><tspan x="0" y="25" fill="#000000" font-family="'Helvetica-Bold'" font-size="2.4">before saving as an SVG </tspan></text><rect x="-136.5" y="58" fill="none" width="35" height="32.5"/><text transform="matrix(1 0 0 1 -136.5 60.1543)"><tspan x="0" y="0" fill="#000000" font-family="'Helvetica-Bold'" font-size="3">Size</tspan><tspan x="0" y="5" fill="#000000" font-family="'Helvetica'" font-size="2.4">Cannot be wider or taller than </tspan><tspan x="0" y="8.5" fill="#000000" font-family="'Helvetica'" font-size="2.4">100px (artboard size)</tspan><tspan x="0" y="13.5" fill="#000000" font-family="'Helvetica'" font-size="2.4">Scale your icon to fill as much of </tspan><tspan x="0" y="16.5" fill="#000000" font-family="'Helvetica'" font-size="2.4">the artboard as possible</tspan></text><rect x="-94" y="58" fill="none" width="35" height="32.5"/><text transform="matrix(1 0 0 1 -94 60.1543)"><tspan x="0" y="0" fill="#000000" font-family="'Helvetica-Bold'" font-size="3">Ungroup</tspan><tspan x="0" y="5" fill="#000000" font-family="'Helvetica'" font-size="2.4">If your design has more than one </tspan><tspan x="0" y="8" fill="#000000" font-family="'Helvetica'" font-size="2.4">shape, make sure to ungroup</tspan></text><rect x="-50" y="58" fill="none" width="35" height="32.5"/><text transform="matrix(1 0 0 1 -50 60.1543)"><tspan x="0" y="0" fill="#000000" font-family="'Helvetica-Bold'" font-size="3">Save as</tspan><tspan x="0" y="5" fill="#000000" font-family="'Helvetica'" font-size="2.4">Save as .SVG and make sure </tspan><tspan x="0" y="8" fill="#000000" font-family="'Helvetica'" font-size="2.4">“Use Artboards” is checked</tspan></text><text transform="matrix(1.0074 0 0 1 -125.542 30.5933)" fill="#000000" font-family="'Helvetica'" font-size="2.5731">100px</text><text transform="matrix(1.0074 0 0 1 -41 39)" fill="#000000" font-family="'Helvetica-Bold'" font-size="5.1462">.SVG</text><rect x="-126.514" y="34.815" fill="#000000" width="10.261" height="10.185"/><rect x="-126.477" y="31.766" fill="#000000" width="0.522" height="2.337"/><rect x="-116.813" y="31.766" fill="#000000" width="0.523" height="2.337"/><rect x="-127" y="32.337" fill="#000000" width="11.233" height="0.572"/><g><rect x="-83.805" y="33.844" fill="#000000" width="10.305" height="10.156"/><rect x="-76.809" y="28.707" fill="#000000" width="3.308" height="3.261"/></g><rect x="-178.5" y="22.5" fill="#000000" stroke="#FFFFFF" stroke-miterlimit="10" width="30" height="30"/><rect x="-136.5" y="22.5" fill="#000000" stroke="#FFFFFF" stroke-miterlimit="10" width="30" height="30"/><rect x="-93.5" y="22.5" fill="#000000" stroke="#FFFFFF" stroke-miterlimit="10" width="30" height="30"/><rect x="-49.5" y="22.5" fill="#000000" stroke="#FFFFFF" stroke-miterlimit="10" width="30" height="30"/></g><g><g><g><g><path d="M35.645,1.978c-1.866-1.205-4.084-1.91-6.469-1.91c-6.613,0-11.972,5.359-11.972,11.97c0,0.235,0.022,0.462,0.036,0.692      C23.434,11.168,30.638,8.24,35.645,1.978z"/><path d="M36.995,2.987c-1.083,1.358-2.261,2.562-3.501,3.64c1.289,1.398,4.067,3.927,7.601,4.466      C40.843,7.857,39.307,4.99,36.995,2.987z"/><path d="M41.896,16.913c-1.458,3.788-4.55,6.762-8.414,8.054h9.33L41.896,16.913z"/><path d="M29.176,24.007c6.366,0,11.555-4.975,11.933-11.244c-4.26-0.534-7.478-3.486-8.917-5.081      c-4.641,3.585-10.012,5.533-14.753,6.714C18.536,19.876,23.37,24.007,29.176,24.007z"/><path d="M16.45,16.936l-0.915,8.031h9.333C21.008,23.677,17.909,20.713,16.45,16.936z"/></g><path d="M43.674,60.454v3.827c0,2.035-1.654,3.689-3.689,3.689c-2.032,0-3.687-1.654-3.687-3.689V44.216l0,0v-4.979     c0-0.462,0.373-0.833,0.834-0.833c0.459,0,0.833,0.371,0.833,0.833v4.979h0.01v20.065c0,1.111,0.897,2.012,2.01,2.012     c1.115,0,2.013-0.898,2.013-2.012V44.216h0.021v-2.832v-0.838v-0.971c0-7.095-5.75-12.844-12.845-12.844     s-12.845,5.75-12.845,12.844v0.971v0.838v0.838h-0.005v22.058c0,1.113,0.897,2.012,2.013,2.012c1.112,0,2.01-0.9,2.01-2.012     V43.565h0.01v-4.328c0-0.462,0.374-0.833,0.834-0.833c0.461,0,0.833,0.371,0.833,0.833v4.328l0,0v20.716     c0,2.035-1.654,3.689-3.687,3.689c-2.035,0-3.689-1.654-3.689-3.689v-3.703l-3.809,18.23h10.23V100h6.286V78.809h3.638V100h6.285     V78.809h10.23L43.674,60.454z"/></g><g><circle cx="71.274" cy="12.037" r="11.97"/><path d="M71.274,26.731c-10.343,0-18.726,8.383-18.726,18.726V71.41h5.106V48.121c0-0.515,0.417-0.928,0.928-0.928     c0.515,0,0.929,0.414,0.929,0.928V71.41v14.642V100h9.933V71.41h3.66V100h9.93V86.052V71.41V48.121     c0-0.515,0.417-0.928,0.929-0.928c0.514,0,0.928,0.414,0.928,0.928V71.41H90V45.457C90,35.114,81.618,26.731,71.274,26.731z"/></g></g></g><text x="0" y="115" fill="#000000" font-size="5px" font-weight="bold" font-family="'Helvetica Neue', Helvetica, Arial-Unicode, Arial, Sans-serif">Created by Piotrek Chuchla</text><text x="0" y="120" fill="#000000" font-size="5px" font-weight="bold" font-family="'Helvetica Neue', Helvetica, Arial-Unicode, Arial, Sans-serif">from the Noun Project</text></svg>